PathFileType	4	(X/Y/Z)	6_coords_data.trc
DataRate	CameraRate	NumFrames	NumMarkers	Units	OrigDataRate	OrigDataStartFrame	OrigNumFrames
30.0	30.0	7	21	m	30.0	29	66
Frame#	Time	THUMB_TIP	THUMB_IP	THUMB_MCP	THUMB_CMC	INDEX_TIP	INDEX_DIP	INDEX_PIP	INDEX_MCP	MIDDLE_TIP	MIDDLE_DIP	MIDDLE_PIP	MIDDLE_MCP	RING_TIP	RING_DIP	RING_PIP	RING_MCP	PINKY_TIP	PINKY_DIP	PINKY_PIP	PINKY_MCP	WRIST
X1	Y1	Z1	X2	Y2	Z2	X3	Y3	Z3	X4	Y4	Z4	X5	Y5	Z5	X6	Y6	Z6	X7	Y7	Z7	X8	Y8	Z8	X9	Y9	Z9	X10	Y10	Z10	X11	Y11	Z11	X12	Y12	Z12	X13	Y13	Z13	X14	Y14	Z14	X15	Y15	Z15	X16	Y16	Z16	X17	Y17	Z17	X18	Y18	Z18	X19	Y19	Z19	X20	Y20	Z20	X21	Y21	Z21
28	0.9333333333333333	0.03987070083618164	-0.02273110008239746	1.0095399780273437	0.03779050064086914	-0.04594990158081055	1.019260009765625	0.022590599060058593	-0.0600082015991211	1.043300048828125	0.0047542500495910646	-0.035041099548339845	1.0574300537109376	0.008304059982299805	-0.057295200347900394	1.0270400390625	0.023045099258422852	-0.05705319976806641	1.0166400146484376	0.02337019920349121	-0.06224140167236328	0.99452197265625	-0.01652000045776367	-0.06368410110473632	1.00222998046875	0.021121799468994142	-0.04128060150146484	1.0267099609375	0.02175550079345703	-0.03931100082397461	1.0219400024414063	0.0245314998626709	-0.03905950164794922	0.993593994140625	-0.02010890007019043	-0.040663799285888674	0.99335302734375	0.02093840026855469	-0.026447200775146486	1.022510009765625	0.017055200576782226	-0.02287779998779297	1.0294599609375	0.02690690040588379	-0.01966349983215332	1.0042000122070311	-0.015431699752807617	-0.016934099197387694	0.9959320068359375	0.005083640098571777	-0.006900119781494141	1.0355400390625	0.018934700012207033	-0.0075720901489257815	1.0291300048828125	0.024926000595092774	-0.003101690053939819	1.01102001953125	-0.006005599975585937	0.003194060087203979	1.005469970703125	-0.028238000869750975	-0.014044500350952149	1.0749599609375
29	0.9666666666666667	0.04000979995727539	-0.02265850067138672	1.009530029296875	0.03797010040283203	-0.045797199249267576	1.0190999755859376	0.02277109909057617	-0.05993899917602539	1.043260009765625	0.004839479923248291	-0.034971298217773436	1.057280029296875	0.008344829559326172	-0.057261001586914065	1.0271300048828125	0.02308530044555664	-0.05699499893188477	1.0166199951171875	0.02352549934387207	-0.062160198211669924	0.99452197265625	-0.016293500900268553	-0.0636313018798828	1.0020900268554687	0.02108530044555664	-0.041200199127197266	1.026550048828125	0.021702600479125977	-0.03922919845581055	1.022260009765625	0.02462220001220703	-0.03909170150756836	0.9935460205078125	-0.019973100662231444	-0.04058280181884766	0.9932680053710937	0.021170000076293945	-0.026602500915527343	1.0220700073242188	0.017274099349975584	-0.022813400268554686	1.0294300537109375	0.02699970054626465	-0.019614200592041015	1.004030029296875	-0.015304100036621094	-0.01681329917907715	0.9959539794921874	0.005195079803466797	-0.0069423699378967285	1.03581005859375	0.019072000503540038	-0.007454450130462646	1.0294200439453125	0.025160400390625	-0.003003340005874634	1.0111300048828125	-0.005797160148620605	0.003277770042419433	1.0053800048828125	-0.02808559989929199	-0.013961799621582031	1.0748699951171874
30	1.0	0.04013840103149414	-0.02262809944152832	1.0096699829101563	0.038062999725341794	-0.04572219848632812	1.0191300048828125	0.02285219955444336	-0.059878398895263675	1.043219970703125	0.005041930198669433	-0.03493330001831055	1.05725	0.00819789981842041	-0.05704629898071289	1.02725	0.023353200912475586	-0.0569911003112793	1.016280029296875	0.023749399185180663	-0.06212649917602539	0.99431201171875	-0.01618120002746582	-0.06357260131835937	1.001989990234375	0.021416000366210938	-0.04119499969482422	1.0266199951171875	0.02211359977722168	-0.03926990127563477	1.0215999755859375	0.024820899963378905	-0.03897499847412109	0.9934550170898437	-0.019808399200439454	-0.040532600402832034	0.9931229858398437	0.02109029960632324	-0.02645509910583496	1.0227000122070313	0.01736750030517578	-0.022792699813842774	1.0296099853515626	0.027158300399780275	-0.019536800384521484	1.0041500244140624	-0.015152400016784667	-0.01676609992980957	0.9958569946289062	0.005267670154571533	-0.006802879810333252	1.03547998046875	0.019132099151611327	-0.007429800033569336	1.0289100341796875	0.02524880027770996	-0.0029844601154327393	1.0109600219726562	-0.005631030082702637	0.003314079999923706	1.0052999877929687	-0.02801569938659668	-0.013887399673461915	1.07475
31	1.0333333333333334	0.040359901428222655	-0.0226151008605957	1.0091599731445313	0.038313098907470707	-0.04580609893798828	1.0188200073242188	0.022911399841308595	-0.0597494010925293	1.0428599853515625	0.005103280067443847	-0.03481150054931641	1.0570699462890625	0.008445130348205567	-0.05709349822998047	1.0265400390625	0.023432100296020508	-0.05689830017089844	1.0160900268554687	0.023781999588012696	-0.06199869918823242	0.9940770263671875	-0.0161968994140625	-0.06339139938354492	1.0018400268554688	0.021620599746704102	-0.04110549926757812	1.0259000244140626	0.02222089958190918	-0.039168701171875	1.0214000244140624	0.024735599517822265	-0.038952098846435544	0.99293701171875	-0.019812299728393556	-0.04031999969482422	0.993	0.021304500579833983	-0.02618280029296875	1.02302001953125	0.01759090042114258	-0.022698299407958984	1.0291199951171874	0.02718479919433594	-0.019463600158691405	1.003489990234375	-0.015147800445556641	-0.01656599998474121	0.9957579956054687	0.005410170078277588	-0.006848770141601563	1.0352099609375	0.019348899841308595	-0.007369949817657471	1.0286300048828125	0.025214899063110353	-0.002899669885635376	1.0106500244140626	-0.005678659915924073	0.003468250036239624	1.005219970703125	-0.027855600357055664	-0.013822199821472168	1.074800048828125
32	1.0666666666666667	0.040837200164794925	-0.022673900604248048	1.0084299926757812	0.03863700103759766	-0.04559450149536133	1.0184600219726563	0.02311750030517578	-0.05933689880371094	1.042469970703125	0.00506974983215332	-0.03448500061035156	1.0566300048828126	0.008863059997558594	-0.05667279815673828	1.0263900146484375	0.02373769950866699	-0.056733898162841793	1.0154199829101562	0.02368479919433594	-0.06197819900512695	0.9935670166015625	-0.016183000564575195	-0.06321670150756836	1.0017000122070312	0.02151250076293945	-0.040856998443603514	1.02577001953125	0.022462400436401367	-0.03890650177001953	1.020719970703125	0.024621299743652344	-0.03877230072021484	0.9921079711914063	-0.019881900787353517	-0.040162498474121094	0.9928170166015625	0.020853099822998048	-0.02603339958190918	1.023530029296875	0.017808399200439452	-0.02244289970397949	1.0283800048828124	0.027070600509643553	-0.019334999084472657	1.0026300048828125	-0.015423199653625489	-0.016380500793457032	0.9955919799804688	0.005424910068511963	-0.006624969959259033	1.034969970703125	0.019405399322509766	-0.007156209945678711	1.0277900390625	0.02510390090942383	-0.002694730043411255	1.0098800048828125	-0.006005330085754394	0.003659940004348755	1.00472998046875	-0.027650400161743163	-0.013644100189208985	1.07493994140625
33	1.1	0.04232519912719727	-0.023539899826049804	1.0065599975585937	0.03917229843139648	-0.045746700286865234	1.017989990234375	0.02333810043334961	-0.058718101501464844	1.0423699951171874	0.005081630229949951	-0.034153900146484374	1.0565799560546876	0.009151080131530761	-0.05643149948120117	1.0261199951171875	0.024055299758911134	-0.056582000732421874	1.0148200073242188	0.023584999084472657	-0.062021099090576175	0.992458984375	-0.016161500930786134	-0.06293040084838868	1.0015999755859375	0.02180459976196289	-0.04053839874267578	1.0251300048828125	0.022997600555419922	-0.03868970108032226	1.019760009765625	0.024469900131225585	-0.03892679977416992	0.9910339965820313	-0.019994199752807616	-0.03996030044555664	0.9927020263671875	0.02025670051574707	-0.02569260025024414	1.023280029296875	0.018040000915527345	-0.022231199264526366	1.027260009765625	0.02680120086669922	-0.01923509979248047	1.001219970703125	-0.015889499664306642	-0.01608869934082031	0.995468994140625	0.005458759784698486	-0.006692490100860596	1.0339200439453125	0.0196117000579834	-0.006916140079498291	1.026550048828125	0.024396900177001954	-0.002371939897537231	1.0078099975585937	-0.006910220146179199	0.003934269905090332	1.0043900146484375	-0.02784339904785156	-0.013461700439453125	1.074780029296875
34	1.1333333333333333	0.045123199462890624	-0.026269100189208985	1.0051300048828125	0.03998440170288086	-0.04705670166015625	1.0178800048828125	0.02295859909057617	-0.05892520141601563	1.0427099609375	0.004646070003509521	-0.03399169921875	1.056530029296875	0.01029829978942871	-0.054952999114990235	1.02597998046875	0.024684499740600586	-0.05610380172729492	1.012760009765625	0.022623699188232423	-0.06193320083618164	0.990010009765625	-0.016580999374389647	-0.06229349899291992	1.0014299926757813	0.021240800857543946	-0.039822399139404295	1.02493994140625	0.023780500411987305	-0.038020198822021484	1.017780029296875	0.023577199935913087	-0.0388760986328125	0.9880679931640625	-0.020668500900268554	-0.03930009841918945	0.9925679931640625	0.011253700256347657	-0.023448900222778322	1.032510009765625	0.01888570022583008	-0.021614599227905273	1.0248199462890626	0.02560890007019043	-0.018859399795532226	0.9978330078125	-0.017173599243164063	-0.015301300048828124	0.9952340087890625	0.005896500110626221	-0.0064519400596618655	1.0321300048828126	0.020058300018310545	-0.00616402006149292	1.0236300048828124	0.022700899124145506	-0.0013889800310134882	1.0040999755859374	-0.008523679733276368	0.004713479995727539	1.003489990234375	-0.027900499343872072	-0.013127099990844727	1.0751700439453125
